<?xml version="1.0" encoding="iso-8859-1"?>
<!-- Uploaded to: SVG Repo, www.svgrepo.com, Generator: SVG Repo Mixer Tools -->
<svg height="800px" width="800px" version="1.1" id="Layer_1" xmlns="http://www.w3.org/2000/svg" xmlns:xlink="http://www.w3.org/1999/xlink" 
	 viewBox="0 0 503.467 503.467" xml:space="preserve">
<g transform="translate(1 17)">
	<path style="fill:#AAB1BA;" d="M250.733,55.533c14.507,0,25.6,11.093,25.6,25.6s-11.093,25.6-25.6,25.6
		c-14.507,0-25.6-11.093-25.6-25.6S236.227,55.533,250.733,55.533"/>
	<path style="fill:#ECF4F7;" d="M20.333,379.8c-9.387,0-17.067,7.68-17.067,17.067v17.067H498.2v-17.067
		c0-9.387-7.68-17.067-17.067-17.067H20.333h460.8c0,0,0-256-230.4-256S20.333,379.8,20.333,379.8z"/>
</g>
<path style="fill:#51565F;" d="M499.2,435.2H4.267c-2.56,0-4.267-1.707-4.267-4.267v-17.067c0-10.24,7.68-18.773,17.067-21.333
	c1.707-32.427,17.92-253.44,230.4-256V128c-14.507-1.707-25.6-14.507-25.6-29.867c0-16.213,13.653-29.867,29.867-29.867
	S281.6,81.92,281.6,98.133c0,15.36-11.093,27.307-25.6,29.867v8.533c212.48,2.56,228.693,224.427,230.4,256
	c9.387,1.707,17.067,10.24,17.067,21.333v17.067C503.467,433.493,501.76,435.2,499.2,435.2z M8.533,426.667h486.4v-12.8
	c0-6.827-5.973-12.8-12.8-12.8c-2.56,0-4.267-1.707-4.267-4.267c0-10.24-2.56-251.733-226.133-251.733
	c-207.36,0-224.427,214.187-226.133,247.467H448c2.56,0,4.267,1.707,4.267,4.267s-1.707,4.267-4.267,4.267H21.333
	c-6.827,0-12.8,5.973-12.8,12.8V426.667z M251.733,76.8c-11.947,0-21.333,9.387-21.333,21.333s9.387,21.333,21.333,21.333
	c11.947,0,21.333-9.387,21.333-21.333S263.68,76.8,251.733,76.8z M422.4,286.72c-1.707,0-3.413-0.853-4.267-2.56
	c-12.8-26.453-29.013-48.64-50.347-65.707c-1.707-1.707-1.707-4.267-0.853-5.973c1.707-1.707,4.267-1.707,5.973-0.853
	c21.333,17.92,39.253,40.96,52.053,68.267c0.853,2.56,0,4.267-1.707,5.973C423.253,285.867,423.253,286.72,422.4,286.72z
	 M345.6,202.24c-0.853,0-0.853,0-1.707,0l-17.067-8.533c-1.707-0.853-3.413-3.413-1.707-5.973c0.853-1.707,3.413-3.413,5.973-1.707
	l17.067,8.533c1.707,0.853,3.413,3.413,1.707,5.973C349.013,201.387,347.307,202.24,345.6,202.24z"/>
</svg>